<?xml version="1.0" encoding="utf-8"?>
<!-- Generator: Adobe Illustrator 25.0.0, SVG Export Plug-In . SVG Version: 6.00 Build 0)  -->
<svg version="1.1" id="Capa_1" xmlns="http://www.w3.org/2000/svg" xmlns:xlink="http://www.w3.org/1999/xlink" x="0px" y="0px"
	 viewBox="0 0 2000 2000" style="enable-background:new 0 0 2000 2000;" xml:space="preserve">
<style type="text/css">
	.st0{display:none;fill:#020202;}
	.st1{fill:url(#SVGID_1_);}
	.st2{fill:url(#SVGID_2_);}
	.st3{fill:url(#SVGID_3_);}
	.st4{fill:url(#SVGID_4_);}
	.st5{fill:url(#SVGID_5_);}
	.st6{fill:url(#SVGID_6_);}
	.st7{fill:url(#SVGID_7_);}
	.st8{fill:url(#SVGID_8_);}
	.st9{fill:url(#SVGID_9_);}
	.st10{fill:url(#SVGID_10_);}
	.st11{fill:url(#SVGID_11_);}
	.st12{fill:url(#SVGID_12_);}
	.st13{fill:#373434;}
	.st14{fill:#020202;}
	.st15{fill:url(#SVGID_13_);}
</style>
<g id="Logo_letras_negras">
	<rect x="-40.4" y="-9.8" class="st0" width="2064.4" height="1972.4"/>
	<g>
		<g>
			<linearGradient id="SVGID_1_" gradientUnits="userSpaceOnUse" x1="1013.666" y1="842.9731" x2="1168.4528" y2="842.9731">
				<stop  offset="0" style="stop-color:#FF8B0C"/>
				<stop  offset="0.4021" style="stop-color:#FC7A1B"/>
				<stop  offset="0.5145" style="stop-color:#FB7420"/>
				<stop  offset="1" style="stop-color:#EE5E33"/>
			</linearGradient>
			<path class="st1" d="M1151.2,742.3c-44.8,76.9-90.4,154.6-135.5,231.4c-1.3-10.4-2-21-2-31.8c0-103.9,64-192.9,154.8-229.6
				C1162.7,722.3,1157,732.3,1151.2,742.3z"/>
			<linearGradient id="SVGID_2_" gradientUnits="userSpaceOnUse" x1="1261.3354" y1="712.1797" x2="1307.0261" y2="712.1797">
				<stop  offset="0" style="stop-color:#FF8B0C"/>
				<stop  offset="0.4021" style="stop-color:#FC7A1B"/>
				<stop  offset="0.5145" style="stop-color:#FB7420"/>
				<stop  offset="1" style="stop-color:#EE5E33"/>
			</linearGradient>
			<path class="st2" d="M1307,729.4h-45.7l14.8-27.6l3.7-6.8c6.8,0.5,13.5,1.3,20.1,2.3l0.5,2.1L1307,729.4z"/>
			<linearGradient id="SVGID_3_" gradientUnits="userSpaceOnUse" x1="1019.4237" y1="884.116" x2="1434.5433" y2="884.116">
				<stop  offset="0" style="stop-color:#FF8B0C"/>
				<stop  offset="0.4021" style="stop-color:#FC7A1B"/>
				<stop  offset="0.5145" style="stop-color:#FB7420"/>
				<stop  offset="1" style="stop-color:#EE5E33"/>
			</linearGradient>
			<path class="st3" d="M1434.5,885.5h-82.6c-4.5-23.5-9.3-46.5-13.2-69.6c-1.2-7.1-4.1-9-10.8-9h-0.2c-17.9,0.1-35.9,0.2-53.9,0.2
				c-19.5,0-38.9-0.1-58.4-0.3h-0.4c-7.2,0-10.9,2.7-14.4,8.8c-49.6,86.2-99.3,172.3-149,258.4c-15-23.8-26.1-50.4-32.4-78.8
				c48.1-81.9,96.1-163.7,143.9-245.8c8.6-14.7,17.1-29.5,25.4-44.3c22.9-7,47.2-10.8,72.4-10.8c1,0,1.9,0,2.9,0
				c-8.8,16.4-17.5,32.7-26.4,49.2h86.9c-3.2-14.5-6.4-28.9-9.7-43.3c31.2,6.9,60.2,19.7,85.7,37.1
				C1412,786.5,1423.2,835.8,1434.5,885.5z"/>
			<linearGradient id="SVGID_4_" gradientUnits="userSpaceOnUse" x1="1060.5753" y1="1061.1035" x2="1096.7463" y2="1061.1035">
				<stop  offset="0" style="stop-color:#FF8B0C"/>
				<stop  offset="0.4021" style="stop-color:#FC7A1B"/>
				<stop  offset="0.5145" style="stop-color:#FB7420"/>
				<stop  offset="1" style="stop-color:#EE5E33"/>
			</linearGradient>
			<path class="st4" d="M1096.7,1024.2c-12.7,23.3-21.9,47.9-27.7,73.8c-2.9-3.6-5.8-7.3-8.5-11v0
				C1072.7,1065.9,1084.8,1045,1096.7,1024.2z"/>
			<linearGradient id="SVGID_5_" gradientUnits="userSpaceOnUse" x1="1191.8015" y1="1155.7964" x2="1419.2483" y2="1155.7964">
				<stop  offset="0" style="stop-color:#FF8B0C"/>
				<stop  offset="0.4021" style="stop-color:#FC7A1B"/>
				<stop  offset="0.5145" style="stop-color:#FB7420"/>
				<stop  offset="1" style="stop-color:#EE5E33"/>
			</linearGradient>
			<path class="st5" d="M1416.6,1132.5c0.9,0,1.8,0,2.7,0c-25.5,21.1-55.3,37.3-87.8,46.9c-34.5,0.5-69,0.8-102.6,0.9h-0.2
				c-18,0-28.8-7.6-34.1-23.9c-2.3-7.2-2.5-15.8-2.7-25v-0.1C1266.7,1131.9,1342.9,1132.2,1416.6,1132.5z"/>
			<linearGradient id="SVGID_6_" gradientUnits="userSpaceOnUse" x1="1080.8333" y1="1049.853" x2="1478.4502" y2="1049.853">
				<stop  offset="0" style="stop-color:#FF8B0C"/>
				<stop  offset="0.4021" style="stop-color:#FC7A1B"/>
				<stop  offset="0.5145" style="stop-color:#FB7420"/>
				<stop  offset="1" style="stop-color:#EE5E33"/>
			</linearGradient>
			<path class="st6" d="M1478.5,1060.8c-11.7,21.3-26.4,40.7-43.6,57.6h0c-81-0.3-162-0.5-243-1.3h-0.4c-10,0-14,3.9-13.8,12.6
				c0.3,10.4,0.3,21.3,3.5,31c2.4,7.5,5.9,13.7,10.3,18.7c-42.8-12.6-80.8-36.4-110.5-68v0c0.3-1.9,0.7-3.9,1.1-5.9
				c11.2-54.7,37.9-101.2,76.7-140.7c24.9-25.4,57.8-35.6,91.8-38.8c40.5-3.9,81.4-4.2,122.1-5.5c9.1-0.3,18.2-0.4,27.4-0.4
				c15,0,30.1,0.2,45.7,0.2c3.8,19.8,7.7,40,11.9,61.7H1445c-32.6,0-65.2,0.1-97.8,0.1c-21.7,0-43.4-0.1-65.1-0.2h-1.1
				c-39.5,0-66.6,16.8-78.7,52.9c-1.8,5.4-4.2,10.7-6.9,17.4c3.3,0,6.1,0,8.7,0c1.5,0,2.9,0,4.3,0c85.6,0.9,171.3,2,256.9,2.6
				C1472,1055,1476,1056.5,1478.5,1060.8z"/>
			<linearGradient id="SVGID_7_" gradientUnits="userSpaceOnUse" x1="1103.4755" y1="898.8282" x2="1508.8282" y2="898.8282">
				<stop  offset="0" style="stop-color:#FF8B0C"/>
				<stop  offset="0.4021" style="stop-color:#FC7A1B"/>
				<stop  offset="0.5145" style="stop-color:#FB7420"/>
				<stop  offset="1" style="stop-color:#EE5E33"/>
			</linearGradient>
			<path class="st7" d="M1508.8,941.9c0,37.7-8.4,73.4-23.5,105.3c-4.9-4.2-11.6-6.3-20-6.4c-65.5-0.4-132-1.2-196.4-1.9
				c-17.6-0.2-35.3-0.4-52.9-0.6c10.1-28.7,30.8-42.1,64.9-42.1h1c19.3,0.2,40,0.2,65.2,0.2c16.3,0,32.6,0,49-0.1
				c16.3,0,32.6-0.1,48.9-0.1h12.5c4.2,0,8.2-1.9,10.9-5.1c2.7-3.2,3.8-7.5,3-11.7l-11.4-59.1l-0.5-2.6c-1.3-6.6-7.1-11.5-13.9-11.5
				c-7.8,0-15.6-0.1-23.2-0.1c-7.4-0.1-15-0.1-22.5-0.1c-10.7,0-19.5,0.1-27.8,0.4c-7.9,0.2-15.7,0.4-23.6,0.6
				c-32.6,0.8-66.3,1.7-99.5,4.9c-43.3,4.1-76.2,18.2-100.5,43c-17.7,18-32.7,37.3-45.1,57.6c3.4-5.8,6.7-11.6,10-17.4
				c32.6-56.6,66.4-115,99.5-172.6c0.5-0.9,0.9-1.4,1.1-1.7c0.2,0,0.5,0,1,0h0.2c18.5,0.2,37.6,0.3,58.6,0.3
				c15.8,0,32.7-0.1,51.5-0.2c2.7,16,5.9,32.1,8.9,47.7c1.3,6.5,2.5,13,3.8,19.5c1.3,6.7,7.1,11.5,13.9,11.5h82.6
				c4.3,0,8.4-2,11.1-5.3c2.7-3.4,3.7-7.8,2.7-11.9l-30.1-131.9C1473.5,795.8,1508.8,864.7,1508.8,941.9z"/>
			<linearGradient id="SVGID_8_" gradientUnits="userSpaceOnUse" x1="957.2899" y1="943.3444" x2="1564.9746" y2="943.3444">
				<stop  offset="0" style="stop-color:#3D3A3B"/>
				<stop  offset="0.2106" style="stop-color:#3E3E3E"/>
				<stop  offset="0.6888" style="stop-color:#424242"/>
				<stop  offset="0.811" style="stop-color:#676767"/>
				<stop  offset="1" style="stop-color:#A6A8A8"/>
			</linearGradient>
			<path class="st8" d="M1064.7,1129c-6-6.3-11.7-12.9-17-19.8c-6,10.3-12,20.7-17.9,31.1c12.5,14.7,26.4,28.2,41.5,40.2
				C1066,1164.5,1063.8,1147.2,1064.7,1129z M1037,1094.5c-14.7-21.7-26.2-45.6-34.1-71.2c-7.3,12.5-14.7,25-22,37.5
				c0.1,0.3,0.2,0.5,0.3,0.8c10.2,24.1,23.4,46.5,39.1,66.9c6.1-10.6,12.2-21.2,18.3-31.8C1038,1096,1037.5,1095.2,1037,1094.5z
				 M1487,1091.9c-6.1,9.3-12.8,18.2-20,26.7c4.5,0,9,0,13.5,0.1h14C1491.9,1109.4,1489.4,1100.6,1487,1091.9z M1364.7,1193.1
				c-31.9,13.2-66.9,20.6-103.6,20.6c-37.4,0-72.9-7.6-105.2-21.2c-28.6-12.1-54.6-28.9-77.2-49.6c0.8,19.9,6,38.2,15.2,54.3
				c47.9,31.7,105.5,50.1,167.2,50.1c41.9,0,81.9-8.5,118.3-23.9c20-8.4,38.8-19,56.3-31.3
				C1412.2,1192.4,1388.4,1192.7,1364.7,1193.1z M1494.5,1132.7h-14.1c-8.8,0-17.5-0.1-26.3-0.1c-12.7,13-26.7,24.7-41.9,34.9
				c-5.8,3.9-11.7,7.6-17.8,11c19.8-0.3,40-0.6,60.1-0.8c16.5-13.7,31.6-29,44.9-45.8C1497.9,1132.4,1496.2,1132.7,1494.5,1132.7z
				 M1541.1,825.1c-23.1-54.5-61.6-100.9-110-133.7c-9.7-6.6-19.9-12.6-30.4-18.1l10.3,44.9c29.4,19.6,54.7,44.7,74.4,73.9
				c29.1,43.2,46.1,95.1,46.1,151.1c0,37.4-7.6,72.9-21.2,105.2c-3.9,9.1-8.2,18-13,26.6c2,7.7,4.2,15.6,6.5,23.7
				c1.4,5.2,3,10.5,4.5,16c0.4,1.6,0.6,3.2,0.4,4.9c1.6-2.1,3.1-4.3,4.5-6.5c32.8-48.5,51.9-107,51.9-169.9
				C1565,901.4,1556.5,861.4,1541.1,825.1z M1261.1,639.5c-12.5,0-24.8,0.8-37,2.2c-6.9,12.5-13.8,25-20.8,37.5
				c18.6-4.1,38-6.2,57.8-6.2c4.8,0,9.5,0.1,14.2,0.4c5.7-10.6,11.5-21.4,17.3-32.3C1282.3,640,1271.8,639.5,1261.1,639.5z
				 M1384.3,665.6c-25.7-11.4-53.4-19.4-82.3-23.3c2.7,12,5.3,23.7,7.9,35.2c19.6,3.6,38.5,9.3,56.4,16.8c9.5,4,18.8,8.6,27.7,13.6
				C1390.8,693.8,1387.6,679.7,1384.3,665.6z M1142.9,663.4c-54.6,23.1-100.9,61.6-133.7,110.1c-32.7,48.5-51.9,107-51.9,169.9
				c0,35.2,6,69.1,17.1,100.6c7.8-13.2,15.6-26.5,23.4-39.8c-4.5-19.5-6.9-39.9-6.9-60.9c0-37.4,7.6-72.9,21.2-105.2
				c20.5-48.5,54.8-89.8,98-118.9c22.6-15.3,47.6-27.2,74.4-35.1c7.5-13.2,14.8-26.5,22.1-39.7
				C1184.4,648.4,1163,654.8,1142.9,663.4z"/>
			
				<linearGradient id="SVGID_9_" gradientUnits="userSpaceOnUse" x1="-611.1249" y1="-622.2346" x2="-609.3587" y2="-622.2346" gradientTransform="matrix(162.0418 75.5613 75.5613 -162.0418 147500.9062 -53709.0078)">
				<stop  offset="0" style="stop-color:#FFFFFF"/>
				<stop  offset="0.2268" style="stop-color:#EDEDED"/>
				<stop  offset="0.679" style="stop-color:#BFBFBF"/>
				<stop  offset="1" style="stop-color:#9B9A9A"/>
			</linearGradient>
			<path class="st9" d="M1541.5,758.9c41.4,8.7,78.6,20.6,113.8,38.5c29.6,15.1,56.4,33.8,78.7,58.8
				c51.1,57.3,58.1,130.8,17.6,196.1c-9.9,16-21.9,31.1-34.9,44.7c-49.9,52.2-111.4,87.9-176.4,120.9c-2.7-6.7-5.1-12.7-7.7-19
				c37.5-26.1,71.6-54.8,101.4-88.5c22.4-25.2,40.4-52.9,46.9-86.6c9.2-47.6-6.2-86.9-42.6-117.7c-12.1-10.3-27-17.3-40.4-26.1
				c-3-1.9-6.8-4.7-7.5-7.7C1580.8,832.7,1565.4,795.7,1541.5,758.9z"/>
			
				<linearGradient id="SVGID_10_" gradientUnits="userSpaceOnUse" x1="-618.0442" y1="-622.6945" x2="-616.278" y2="-622.6945" gradientTransform="matrix(390.5363 0 0 -390.5363 241659.7656 -242198.0625)">
				<stop  offset="0" style="stop-color:#E0E1E2"/>
				<stop  offset="4.102398e-07" style="stop-color:#E0E1E2"/>
				<stop  offset="1" style="stop-color:#DADBDC"/>
			</linearGradient>
			<path class="st10" d="M964.2,772.7C805,809.6,658,873.5,526.8,971.6c-7.3,5.5-14.5,11-22.2,14.6l-0.3,0.3
				c-3.4,4-7.2,7.7-11.5,10.8c-0.2,0.2-0.3,0.3-0.5,0.5L492,998c-2.7,2.7-5.6,5.1-8.7,7.2c-2.9,3.1-6.1,5.9-9.6,8.4
				c-1.2,1.6-2.8,3-5,4.3c-7.2,4.4-13.3,10.7-21.1,17.6l-0.3,0.3c-2.4,2.5-4.9,4.8-7.7,6.7c-2.1,2-4.3,3.9-6.7,5.6
				c-0.7,0.7-1.4,1.4-2.2,2.1c-0.7,1.3-1.6,2.6-2.9,4c-35.4,37.3-70.8,74.5-105.8,112.2c-11.1,11.9-20.7,25.2-31,37.9
				c4.4-0.9,7.2-3.4,9.8-6c52.7-52.2,107.4-102.2,167.6-145.6c2.2-1.6,4.7-2.8,7.4-3.8c6.5-5.5,13.2-10.7,20.2-15.6
				c-0.1-0.2-0.1-0.3-0.2-0.5c14.9-9.7,29.8-19.5,46.3-30.2l0,0.5c7.1-4.4,14.4-8.7,21.8-12.6c2.2-1.1,4.3-2.1,6.6-3
				c2.3-2.7,4.9-4.3,7.5-5.8c112.8-63.8,233.9-104.1,361.2-127.2c3.4-0.6,7.9-3.5,9.2-6.5c11.1-25.9,21.6-52.2,32.4-78.7
				C976,770.2,970.1,771.3,964.2,772.7z"/>
			<linearGradient id="SVGID_11_" gradientUnits="userSpaceOnUse" x1="1078.609" y1="1091.0665" x2="1540.4249" y2="1091.0665">
				<stop  offset="0" style="stop-color:#F5F5F5"/>
				<stop  offset="0.2799" style="stop-color:#C4C4C4"/>
				<stop  offset="0.5106" style="stop-color:#838383"/>
				<stop  offset="0.5189" style="stop-color:#878787"/>
				<stop  offset="0.676" style="stop-color:#CACBCB"/>
				<stop  offset="0.7495" style="stop-color:#E5E6E6"/>
				<stop  offset="0.7754" style="stop-color:#DCDDDD"/>
				<stop  offset="0.9254" style="stop-color:#ADADAD"/>
				<stop  offset="1" style="stop-color:#9B9A9A"/>
			</linearGradient>
			<path class="st11" d="M1540.4,1261.9h-345.7c-10.8-3-21.9-5.2-32.3-9.2c-31.4-12-54.6-31.2-68.5-55.6
				c-9.2-16.1-14.4-34.4-15.2-54.3c-0.4-10.1,0.2-20.6,2.1-31.4v0c0.3-1.9,0.7-3.9,1.1-5.9c11.2-54.7,37.9-101.2,76.7-140.7
				c24.9-25.4,57.8-35.6,91.8-38.8c40.5-3.9,81.4-4.2,122.1-5.5c9.1-0.3,18.2-0.4,27.4-0.4c15,0,30.1,0.2,45.7,0.2
				c3.8,19.8,7.7,40,11.9,61.7H1445c-32.6,0-65.2,0.1-97.8,0.1c-21.7,0-43.4-0.1-65.1-0.2h-1.1c-39.5,0-66.6,16.8-78.7,52.9
				c-1.8,5.4-4.2,10.7-6.9,17.4c3.3,0,6.1,0,8.7,0c1.5,0,2.9,0,4.3,0c85.6,0.9,171.3,2,256.9,2.6c6.7,0.1,10.8,1.5,13.2,5.8
				c0.9,1.6,1.6,3.7,2.2,6.2c1.9,8.3,4,16.5,6.3,24.9c2.4,8.7,4.9,17.5,7.5,26.7h-14c-4.5,0-9,0-13.5-0.1c-10.7,0-21.4-0.1-32.1-0.1
				h0c-81-0.3-162-0.5-243-1.3h-0.4c-10,0-14,3.9-13.8,12.6c0.3,10.4,0.3,21.3,3.5,31c2.4,7.5,5.9,13.7,10.3,18.7v0
				c8.8,10,21.5,15,37.2,15h0.3c44.5-0.2,90.2-0.7,135.9-1.4c23.7-0.4,47.4-0.7,71-1c24.1-0.3,48.1-0.7,71.7-0.9c1.1,0,2.1,0,3,0
				c6.2,0,4.4,1,8.9,13.7C1525.7,1224,1533.3,1242.9,1540.4,1261.9z"/>
			
				<linearGradient id="SVGID_12_" gradientUnits="userSpaceOnUse" x1="-611.9702" y1="-621.5986" x2="-610.2812" y2="-621.5986" gradientTransform="matrix(156.8889 94.2684 94.2684 -156.8889 155687.625 -38953.1445)">
				<stop  offset="0" style="stop-color:#CCCECE"/>
				<stop  offset="8.098240e-07" style="stop-color:#CCCECE"/>
				<stop  offset="0.1035" style="stop-color:#DFE0E0"/>
				<stop  offset="0.1309" style="stop-color:#E5E6E6"/>
				<stop  offset="0.3579" style="stop-color:#CCCDCD"/>
				<stop  offset="0.5324" style="stop-color:#B5B7B7"/>
				<stop  offset="0.7246" style="stop-color:#929292"/>
				<stop  offset="1" style="stop-color:#777777"/>
			</linearGradient>
			<path class="st12" d="M1400.7,737.3c-2.2-9.8-4.5-19.6-6.7-29.4c-3.2-14.1-6.4-28.3-9.7-42.4c-8.3-36.2-16.5-72.4-24.8-108.5
				c-14.8,0-29.3,0.1-43.7,0.1c-11.6,0-23-0.1-34.5-0.3h-0.7c-7.3,0-11.2,2.6-14.8,9.1c-14,25.3-27.8,50.5-41.8,75.8
				c-6.9,12.5-13.8,25-20.8,37.5c-4.8,8.6-9.6,17.2-14.5,25.8c-8.4,14.8-16.8,29.6-25.4,44.3c-47.8,82-95.8,163.9-143.9,245.8
				c-5.5,9.4-11,18.8-16.5,28.1c-7.3,12.5-14.7,25-22,37.5c-34.1,58.1-68.3,116.2-102.4,174.2c-1.9,3.2-3.6,6.5-6,10.9
				c13.6,0,26.6-0.2,39.3-0.2c9,0,17.9,0.1,26.8,0.5c0.6,0,1.2,0,1.8,0c9.6,0,14.5-4.1,19.4-12.5c20.2-35.1,40.3-70.2,60.5-105.2
				c6.1-10.6,12.2-21.2,18.3-31.8c4.4-7.6,8.8-15.2,13.2-22.9c49.6-86.1,99.4-172.2,149-258.4c3.5-6.1,7.1-8.8,14.4-8.8h0.4
				c19.5,0.2,38.9,0.3,58.4,0.3c17.9,0,35.9-0.1,53.9-0.2h0.2c6.7,0,9.6,1.9,10.8,9c3.9,23.2,8.7,46.2,13.2,69.6h82.6
				C1423.2,835.8,1412,786.5,1400.7,737.3z M1237.7,743.5c8.9-16.5,17.6-32.8,26.4-49.2c3.7-6.9,7.5-13.9,11.2-20.9
				c5.7-10.6,11.5-21.4,17.3-32.3c2.2-4,4.3-8,6.5-12.1c1,4.5,2,8.8,2.9,13.2c2.7,12,5.3,23.7,7.9,35.2c1.7,7.6,3.4,15.2,5,22.7v0
				c3.2,14.5,6.4,28.8,9.7,43.3H1237.7z"/>
			<path class="st13" d="M187.3,990.1h-12.6l-31.7,56h13l6.5-12.3h35.5l6.7,12.3h14.6L187.3,990.1z M168.1,1023.7l12.5-22.8l12,22.8
				H168.1z"/>
			<polygon class="st13" points="221.8,990.1 234.8,990.1 234.8,1035.6 276.8,1035.6 276.8,1046.1 221.8,1046.1 			"/>
			<path class="st13" d="M334.2,990.1H293c-10.5,0-13.9,2.7-13.9,13.2v29.5c0,10.5,3.4,13.2,13.9,13.2h23l6.3,14.4h12.9l-7-14.4h6.1
				c10.5,0,13.9-2.7,13.9-13.2v-29.5C348.1,992.8,344.7,990.1,334.2,990.1z M335.1,1035.6h-11.9l-7.6-15.9l-9.4,3.8l5.2,12.2h-19.2
				v-35.5h43V1035.6z"/>
			<path class="st13" d="M372.9,1035.6H410v-45.4h13v42.7c0,10.5-3.4,13.2-13.9,13.2h-35.4c-10.5,0-13.9-2.7-13.9-13.2v-42.7h13
				V1035.6z"/>
			<rect x="436.1" y="990.1" class="st13" width="13" height="56"/>
			<polygon class="st13" points="477.7,990.1 535,990.1 535,999.7 490.7,999.7 490.7,1012.2 516.6,1012.2 516.6,1021.7 
				490.7,1021.7 490.7,1035.6 535.5,1035.6 535.5,1046.1 477.7,1046.1 			"/>
			<path class="st13" d="M597.3,990.1h-41.2c-10.2,0-13.7,2.6-13.9,12.4c0,0.3,0,0.5,0,0.8v29.5c0,10.5,3.4,13.2,13.9,13.2h23
				l6.3,14.4h12.9l-7-14.4h6.1c10.5,0,13.9-2.7,13.9-13.2v-29.5C611.2,992.8,607.8,990.1,597.3,990.1z M598.1,1035.6h-11.9
				l-7.6-15.9l-9.4,3.8l5.2,12.2h-19.2v-35.5h43V1035.6z"/>
			<path class="st13" d="M635.3,1035.6h37.1v-45.4h13v42.7c0,10.5-3.4,13.2-13.9,13.2h-35.4c-10.5,0-13.9-2.7-13.9-13.2v-42.7h13
				V1035.6z"/>
			<rect x="697.8" y="990.1" class="st13" width="13" height="56"/>
			<path class="st13" d="M771.2,990.1h-48v56H736v-21.8h35.1c8.6,0,12.6-3,12.6-10.8V1001C783.7,993.2,779.7,990.1,771.2,990.1z
				 M771.2,1010.2c0,3.7-1.9,4.5-5.9,4.5H736v-14.9h29.3c4,0,5.9,0.8,5.9,4.5V1010.2z"/>
			<path class="st13" d="M841.5,990.1h-41.2c-10.5,0-13.9,2.7-13.9,13.2v29.5c0,10.5,3.4,13.2,13.9,13.2h41.2
				c10.5,0,13.9-2.7,13.9-13.2v-29.5C855.3,992.8,852,990.1,841.5,990.1z M842.3,1035.6h-43v-35.5h43V1035.6z"/>
			<path class="st13" d="M878.3,999.9v12h34.9c10.5,0,14,2.7,14,13.2v7.7c0,10.5-3.5,13.2-14,13.2h-34.6c-10.5,0-14-2.7-14-13.2
				v-1.5l11.5-2.4v6.6h39.6v-12.8h-34.9c-10.5,0-13.9-2.7-13.9-13.2v-6.2c0-10.5,3.4-13.2,13.9-13.2h31.8c10,0,13.9,2.6,13.9,12.3
				v1.2l-11.5,2.7v-6.4H878.3z"/>
		</g>
	</g>
</g>
<path class="st14" d="M1292.1,651"/>
<linearGradient id="SVGID_13_" gradientUnits="userSpaceOnUse" x1="1281.3447" y1="674.2248" x2="1301.1492" y2="674.2248">
	<stop  offset="0.2106" style="stop-color:#3E3E3E"/>
	<stop  offset="0.6888" style="stop-color:#424242"/>
</linearGradient>
<path class="st15" d="M1295,660.4l-13.6,25.4c6.6,0.7,13.2,1.4,19.8,2.3L1295,660.4z"/>
</svg>
